<svg xmlns="http://www.w3.org/2000/svg" version="1.1" xmlns:xlink="http://www.w3.org/1999/xlink" width="512"
    height="512" x="0" y="0" viewBox="0 0 1707 1707" style="enable-background:new 0 0 512 512" xml:space="preserve"
    fill-rule="evenodd" class="">
    <g>
        <path fill="#4d4d4d"
            d="M1530 1c14 0 25 11 25 25v1655c-1 14-11 25-25 25H177c-14 0-25-11-25-25V26c0-14 11-25 25-25zM645 689c-16 0-32-3-47-9v3l48 39 46-37v-5c-16 6-32 9-47 9zm188-366c6 43 15 147-19 189-4 4-8 8-12 11-10 56-33 97-60 124v38l38 38c178 6 200 72 201 253h16V166H294v810h13c1-181 24-247 203-253l38-38v-38c-26-27-48-66-57-119-60-27-45-164-40-199 15-122 360-180 382-6zm-79 191c-7-97-5-112-41-117-114-15-175-5-179 100 6 10 11 82 50 116 19 13 30 28 62 28 62 0 99-75 108-127zm-81-253c-86 0-167 40-171 72-4 33-5 71-4 100 34-97 126-97 222-85 41 6 62 28 72 63 0-25-2-53-6-83-5-60-80-67-113-67zm193 619v96h67c-1-169-17-200-155-205-97 97-89 106-134 30-42 76-34 66-132-30-140 5-156 36-157 205h68v-96c0-33 50-33 50 0v96h344v-96c0-33 49-33 49 0zM677 760l16 28 42-41-18-18zm-121-13 42 41 16-28-38-32zm849 362c33 0 33 50 0 50H303c-33 0-33-50 0-50zm0 288c33 0 33 50 0 50H303c-33 0-33-50 0-50zm-496 194H303c-33 0-33-50 0-50h606c34 0 32 50 0 50zm496-338c33 0 33 50 0 50H303c-33 0-33-50 0-50zm32-252h-292c-33 0-33-50 0-50h292c33 0 33 50 0 50zm0-164h-292c-33 0-33-49 0-49h292c33 0 33 49 0 49zm0-164h-292c-33 0-33-50 0-50h292c33 0 33 50 0 50zm0-156h-292c-33 0-33-49 0-49h292c33 0 33 49 0 49zm0-164h-292c-33 0-33-50 0-50h292c33 0 33 50 0 50zm0-165h-292c-34 0-32-49 0-49h292c32 0 34 49 0 49zm-417-72c14 0 25 11 25 25v860c0 12-11 23-25 23H269c-13 0-24-11-24-25V141c0-14 11-25 24-25zm486-65H202v1606h1304z"
            opacity="1" data-original="#4d4d4d" class=""></path>
        <path fill="#f1f1f1"
            d="M997 976V166H294v810h13c1-181 24-247 203-253l38-38v-38c-26-27-48-66-57-119-60-27-45-164-40-199 15-122 360-180 382-6 6 43 15 147-19 189-4 4-8 8-12 11-10 56-33 97-60 124v38l38 38c178 6 200 72 201 253z"
            opacity="1" data-original="#f1f1f1" class=""></path>
        <path fill="#99a4ac"
            d="M720 348c41 6 62 28 72 63 0-25-2-53-6-83-5-60-80-67-113-67-86 0-167 40-171 72-4 33-5 71-4 100 34-97 126-97 222-85z"
            opacity="1" data-original="#99a4ac"></path>
        <path fill="#f3a766"
            d="M754 514c-7-97-5-112-41-117-114-15-175-5-179 100 6 10 11 82 50 116 19 13 30 28 62 28 62 0 99-75 108-127zM692 680c-16 6-32 9-47 9-16 0-32-3-47-9v3l48 39 46-37z"
            opacity="1" data-original="#f3a766"></path>
        <g fill="#1d81ce">
            <path d="m614 760-38-32-20 19 42 41zM677 760l16 28 42-41-18-18z" fill="#1d81ce" opacity="1"
                data-original="#1d81ce"></path>
            <path
                d="M778 771c-97 97-89 106-134 30-42 76-34 66-132-30-140 5-156 36-157 205h68v-96c0-33 50-33 50 0v96h344v-96c0-33 49-33 49 0v96h67c-1-169-17-200-155-205z"
                fill="#1d81ce" opacity="1" data-original="#1d81ce"></path>
        </g>
        <path fill="#d9f2f2"
            d="M1045 141v860c0 12-11 23-25 23H269c-13 0-24-11-24-25V141c0-14 11-25 24-25h751c14 0 25 11 25 25zm392 532h-292c-33 0-33-50 0-50h292c33 0 33 50 0 50zm0-156h-292c-33 0-33-49 0-49h292c33 0 33 49 0 49zm0-164h-292c-33 0-33-50 0-50h292c33 0 33 50 0 50zm0-165h-292c-34 0-32-49 0-49h292c32 0 34 49 0 49zm69 1469V51H202v1606zm-361-869h292c33 0 33 49 0 49h-292c-33 0-33-49 0-49zm0 163h292c33 0 33 50 0 50h-292c-33 0-33-50 0-50zm260 158c33 0 33 50 0 50H303c-33 0-33-50 0-50zM303 1253h1102c33 0 33 50 0 50H303c-33 0-33-50 0-50zm1102 144c33 0 33 50 0 50H303c-33 0-33-50 0-50zM303 1541h606c34 0 32 50 0 50H303c-33 0-33-50 0-50z"
            opacity="1" data-original="#d9f2f2"></path>
    </g>
</svg>