<svg xmlns="http://www.w3.org/2000/svg" version="1.1" xmlns:xlink="http://www.w3.org/1999/xlink" width="512"
    height="512" x="0" y="0" viewBox="0 0 24 24" style="enable-background:new 0 0 512 512" xml:space="preserve"
    class="">
    <g>
        <path fill="#fa1228"
            d="M12.616 2.212a1 1 0 0 0-1.232 0L9.724 3.51 7.64 3.216a1 1 0 0 0-1.066.615l-.789 1.953-1.953.789a1 1 0 0 0-.615 1.066l.293 2.086-1.297 1.66a1 1 0 0 0 0 1.23l1.297 1.66-.293 2.086a1 1 0 0 0 .615 1.066l1.953.789.789 1.953a1 1 0 0 0 1.066.616l2.086-.294 1.66 1.297a1 1 0 0 0 1.23 0l1.66-1.297 2.086.294a1 1 0 0 0 1.066-.616l.789-1.953 1.953-.789a1 1 0 0 0 .616-1.066l-.294-2.086 1.297-1.66a1 1 0 0 0 0-1.23l-1.297-1.66.294-2.086a1 1 0 0 0-.616-1.066l-1.953-.789-.789-1.953a1 1 0 0 0-1.066-.615l-2.086.293z"
            opacity="1" data-original="#fa1228"></path>
        <path fill="#ebebed" fill-rule="evenodd"
            d="M10.586 9.172a1 1 0 0 0-1.414 1.414L10.586 12l-1.414 1.414a1 1 0 1 0 1.414 1.414L12 13.414l1.414 1.414a1 1 0 1 0 1.414-1.414L13.414 12l1.414-1.414a1 1 0 0 0-1.414-1.414L12 10.586z"
            clip-rule="evenodd" opacity="1" data-original="#ebebed" class=""></path>
    </g>
</svg>